<?xml version="1.0" encoding="UTF-8"?>
<!-- Generator: visioncortex VTracer 0.6.4 -->
<svg version="1.1" xmlns="http://www.w3.org/2000/svg" width="512" height="512">
<path d="M0 0 C0.94 0.16 1.89 0.32 2.86 0.49 C50.86 9.07 98.17 32.47 132 68 C132.78 68.78 133.57 69.57 134.38 70.38 C135.24 71.24 136.11 72.11 137 73 C137.95 73.9 137.95 73.9 138.92 74.82 C145.69 81.34 151.36 88.51 157 96 C157.42 96.56 157.85 97.12 158.29 97.69 C198.58 150.98 213.22 219.37 204.22 285 C199.73 314.53 191.57 347.39 166.37 366.21 C159.07 371.38 151.39 375.87 143 379 C141.99 379.39 140.98 379.78 139.93 380.19 C119.5 386.88 95.83 384.57 76.69 375.25 C60.13 366.69 48.43 354.93 39 339 C39 338.34 39 337.68 39 337 C38.22 337.63 37.45 338.26 36.65 338.91 C8.06 361.7 -24.73 370.42 -61 366.69 C-66.47 365.91 -71.73 364.64 -77 363 C-78.04 362.68 -78.04 362.68 -79.09 362.35 C-111 352.08 -135.43 329.91 -150.89 300.44 C-165.1 272.3 -166.86 238.78 -157.18 208.92 C-151.07 191.29 -141.95 176.47 -129 163 C-128.2 162.14 -127.39 161.29 -126.56 160.41 C-108.61 141.78 -80.84 128.12 -54.73 126.84 C-23.12 126.46 -23.12 126.46 -11 130 C-10.33 130.19 -9.67 130.39 -8.98 130.59 C4.61 134.66 17.31 140.97 29 149 C29.14 148.37 29.27 147.74 29.41 147.09 C31.47 138.91 35.27 132.98 42.56 128.5 C48.95 125.71 56.78 125.92 63.43 127.62 C69.4 130.23 74.27 135.4 77.07 141.23 C78.15 144.44 78.26 147.03 78.27 150.4 C78.27 151.7 78.28 152.99 78.29 154.33 C78.29 155.75 78.29 157.18 78.29 158.61 C78.29 160.11 78.3 161.62 78.31 163.13 C78.32 166.38 78.33 169.62 78.34 172.87 C78.34 178.01 78.36 183.15 78.39 188.29 C78.44 199.21 78.47 210.14 78.5 221.06 C78.53 232.83 78.57 244.6 78.62 256.37 C78.65 261.47 78.66 266.58 78.67 271.68 C78.67 274.86 78.69 278.05 78.7 281.24 C78.71 282.71 78.71 284.18 78.71 285.64 C78.7 299.47 78.95 312.06 88.5 322.81 C89.74 323.9 89.74 323.9 91 325 C91.72 325.68 92.44 326.36 93.19 327.06 C101.52 332.8 110.56 334.81 120.5 333.38 C129.16 331.55 136.64 327.13 142 320 C161.9 285.97 160.54 234.95 151 198 C142.99 169.58 130.79 142.23 111 120 C110.21 119.11 109.43 118.21 108.62 117.29 C104.87 113.07 101.05 108.95 97 105 C96.44 104.39 95.88 103.79 95.3 103.16 C61.88 67.89 10.73 49.63 -37 48 C-82.23 47.36 -128.5 61.51 -164 90 C-165.54 91.23 -165.54 91.23 -167.11 92.49 C-203.04 121.79 -227.69 162.54 -237 208 C-237.16 208.77 -237.33 209.54 -237.5 210.34 C-242.38 234.3 -242.23 262.11 -237 286 C-236.8 286.91 -236.6 287.83 -236.4 288.77 C-229.86 317.88 -217.37 345.42 -199 369 C-198.55 369.57 -198.11 370.15 -197.65 370.74 C-165.17 411.83 -116.95 438.12 -65.08 444.62 C-57.51 445.4 -49.91 445.35 -42.31 445.31 C-41.48 445.31 -40.64 445.31 -39.78 445.31 C-27.29 445.26 -15.22 444.76 -3 442 C-2.2 441.83 -1.39 441.66 -0.56 441.48 C20.98 436.82 42.48 429.05 61.12 417.13 C66.99 413.61 74.41 414.42 81 415 C88.01 417.11 92.37 421.8 96 428 C98.98 434.24 99.02 441.64 96.88 448.19 C93.45 455.81 87.95 460.15 80.69 463.94 C79.9 464.36 79.11 464.78 78.29 465.22 C75.87 466.5 73.44 467.76 71 469 C70.29 469.36 69.59 469.73 68.86 470.1 C22.41 493.69 -35.69 502.98 -87 492 C-88.08 491.77 -89.17 491.54 -90.29 491.3 C-134.26 481.62 -176.49 462.14 -209.2 430.68 C-211.7 428.29 -214.26 426.01 -216.88 423.75 C-220.97 420.12 -224.49 416.19 -228 412 C-228.81 411.08 -229.62 410.15 -230.46 409.2 C-264.06 370.77 -284.88 321.74 -290 271 C-290.11 269.95 -290.22 268.9 -290.34 267.82 C-296.34 200.08 -273.98 134.65 -230.69 82.78 C-221.09 71.43 -210.75 61.13 -199 52 C-197.53 50.82 -197.53 50.82 -196.02 49.61 C-141.47 6.21 -68.58 -11.72 0 0 Z M-94.69 198.31 C-108.6 212.66 -113.43 230.66 -113.44 250.11 C-113.27 259.15 -111.47 266.7 -108 275 C-107.62 275.94 -107.23 276.88 -106.84 277.85 C-103.89 284.34 -99.69 289.68 -95 295 C-94.32 295.77 -93.64 296.55 -92.94 297.35 C-79.83 311.37 -61.94 317.95 -43.07 318.96 C-23.58 319.36 -6.29 311.37 7.72 298.25 C21.93 284.24 29.17 267.64 29.31 247.62 C29.34 226.52 21.7 210.06 7.25 194.88 C-22.5 166.02 -66.01 171.14 -94.69 198.31 Z " fill="#000000" transform="translate(298,9)"/>
</svg>
