<?xml version="1.0" encoding="UTF-8"?>
<!-- Generator: visioncortex VTracer 0.6.4 -->
<svg version="1.1" xmlns="http://www.w3.org/2000/svg" width="512" height="512">
<path d="M0 0 C1.95 -0.02 3.89 -0.05 5.84 -0.09 C26.38 -0.44 26.38 -0.44 33.57 5.41 C37.66 9.78 39.69 13.99 39.71 19.97 C39.72 20.91 39.72 21.85 39.73 22.82 C39.73 23.85 39.73 24.89 39.73 25.96 C39.74 27.06 39.74 28.15 39.75 29.29 C39.76 32.99 39.77 36.69 39.78 40.39 C39.79 42.36 39.8 44.33 39.8 46.31 C39.84 54.93 39.86 63.56 39.88 72.19 C39.88 74.44 39.89 76.68 39.89 78.93 C39.92 92.89 39.95 106.84 39.97 120.8 C39.97 124.03 39.97 127.26 39.98 130.49 C39.98 131.3 39.98 132.1 39.98 132.93 C40 145.94 40.04 158.95 40.09 171.96 C40.14 185.32 40.17 198.68 40.18 212.04 C40.18 219.54 40.2 227.04 40.24 234.54 C40.27 240.93 40.29 247.32 40.27 253.71 C40.27 256.97 40.27 260.22 40.3 263.48 C40.33 267.02 40.32 270.56 40.3 274.09 C40.33 275.63 40.33 275.63 40.35 277.19 C40.26 284.43 38.25 288.9 33.57 294.41 C24.83 302.72 8.03 300.7 -3.27 300.81 C-74.61 300.8 -74.61 300.8 -136.43 331.41 C-137.13 332.14 -137.83 332.88 -138.56 333.64 C-140.43 335.41 -140.43 335.41 -142.43 335.41 C-142.63 296.53 -142.79 257.65 -142.89 218.77 C-142.9 214.18 -142.91 209.59 -142.92 205 C-142.92 204.09 -142.93 203.17 -142.93 202.23 C-142.97 187.43 -143.04 172.63 -143.12 157.84 C-143.21 142.66 -143.26 127.48 -143.27 112.3 C-143.29 102.93 -143.33 93.56 -143.4 84.19 C-143.45 77.76 -143.46 71.34 -143.45 64.92 C-143.44 61.21 -143.45 57.51 -143.5 53.8 C-143.55 49.78 -143.53 45.76 -143.51 41.74 C-143.55 39.99 -143.55 39.99 -143.59 38.19 C-143.46 30.48 -143.46 30.48 -140.47 27.38 C-138.18 25.83 -135.93 24.58 -133.43 23.41 C-132.27 22.78 -131.12 22.15 -129.93 21.5 C-89.78 2.58 -43.7 0.41 0 0 Z " fill="#000000" transform="translate(408.4269104003906,84.59359741210938)"/>
<path d="M0 0 C0.88 0 1.76 0 2.66 0 C5.51 0.01 8.37 0.04 11.22 0.09 C13.21 0.1 15.2 0.12 17.19 0.13 C128.52 1.26 128.52 1.26 156.72 29.46 C156.97 31.67 156.97 31.67 156.96 34.49 C156.97 35.56 156.97 36.63 156.98 37.73 C156.97 38.91 156.97 40.1 156.96 41.32 C156.96 42.57 156.96 43.82 156.96 45.11 C156.97 48.59 156.96 52.08 156.95 55.56 C156.94 59.32 156.95 63.07 156.95 66.82 C156.95 73.33 156.94 79.84 156.93 86.34 C156.91 95.75 156.91 105.16 156.91 114.56 C156.9 129.83 156.89 145.09 156.87 160.35 C156.85 175.18 156.84 190.01 156.83 204.83 C156.83 205.75 156.83 206.66 156.83 207.6 C156.82 212.18 156.82 216.77 156.82 221.35 C156.8 259.39 156.76 297.42 156.72 335.46 C153.55 333.96 151.51 332.39 149.03 329.9 C116.31 300.44 59.78 301.54 18.67 300.98 C-11.72 300.56 -11.72 300.56 -19.6 294.48 C-25.07 287.91 -25.86 281.68 -25.78 273.33 C-25.79 272.23 -25.79 271.12 -25.8 269.99 C-25.81 266.31 -25.8 262.63 -25.78 258.95 C-25.79 256.31 -25.79 253.67 -25.8 251.03 C-25.81 244.61 -25.81 238.18 -25.79 231.76 C-25.77 224.28 -25.78 216.79 -25.78 209.31 C-25.79 195.96 -25.77 182.61 -25.75 169.26 C-25.72 156.31 -25.72 143.35 -25.73 130.4 C-25.74 116.29 -25.74 102.18 -25.73 88.07 C-25.72 86.57 -25.72 85.06 -25.72 83.56 C-25.72 82.82 -25.72 82.07 -25.72 81.31 C-25.71 76.1 -25.72 70.88 -25.72 65.67 C-25.73 59.31 -25.72 52.96 -25.7 46.61 C-25.69 43.36 -25.69 40.12 -25.69 36.88 C-25.7 33.37 -25.69 29.85 -25.67 26.34 C-25.67 25.32 -25.68 24.29 -25.69 23.24 C-25.63 16.44 -24.54 12.17 -20.09 6.84 C-13.78 1.51 -8.17 -0.14 0 0 Z " fill="#000000" transform="translate(89.28125,84.5390625)"/>
<path d="M0 0 C0 1.22 0 2.44 0.01 3.7 C0.06 32.71 0.14 61.72 0.23 90.73 C0.24 94.3 0.25 97.88 0.26 101.45 C0.26 102.16 0.27 102.88 0.27 103.61 C0.3 115.11 0.33 126.62 0.35 138.13 C0.37 149.94 0.41 161.76 0.45 173.57 C0.47 180.2 0.49 186.84 0.5 193.47 C0.5 199.72 0.52 205.96 0.55 212.21 C0.56 214.5 0.57 216.79 0.57 219.08 C0.56 235.56 0.6 250.51 12.19 263.45 C22.46 273.43 33.79 276.08 47.66 276.25 C49.6 276.28 51.53 276.31 53.46 276.34 C54.47 276.36 55.47 276.37 56.51 276.39 C151 277.9 151 277.9 179 298 C179 298.33 179 298.66 179 299 C155.02 299.09 131.03 299.16 107.05 299.21 C95.92 299.23 84.78 299.26 73.64 299.3 C63.94 299.34 54.23 299.37 44.52 299.38 C39.38 299.38 34.25 299.39 29.11 299.42 C24.27 299.45 19.43 299.46 14.59 299.45 C12.82 299.45 11.04 299.46 9.27 299.48 C6.84 299.5 4.41 299.49 1.99 299.48 C1.29 299.49 0.59 299.5 -0.13 299.52 C-6.31 299.44 -11.38 297.26 -16.02 293.25 C-16.47 292.7 -16.92 292.14 -17.38 291.56 C-17.84 291.01 -18.3 290.45 -18.77 289.88 C-22.48 284.2 -22.29 278.91 -22.27 272.33 C-22.28 271.24 -22.28 270.15 -22.29 269.03 C-22.31 265.38 -22.31 261.73 -22.31 258.08 C-22.31 255.47 -22.32 252.85 -22.33 250.24 C-22.35 243.13 -22.36 236.02 -22.37 228.91 C-22.37 224.47 -22.38 220.02 -22.38 215.58 C-22.4 203.28 -22.42 190.97 -22.42 178.67 C-22.42 177.88 -22.42 177.1 -22.42 176.28 C-22.42 174.69 -22.42 173.09 -22.42 171.5 C-22.43 170.71 -22.43 169.91 -22.43 169.1 C-22.43 168.3 -22.43 167.51 -22.43 166.69 C-22.43 153.85 -22.46 141 -22.49 128.16 C-22.53 114.96 -22.55 101.77 -22.55 88.57 C-22.55 81.16 -22.56 73.76 -22.59 66.35 C-22.62 59.38 -22.62 52.42 -22.6 45.45 C-22.6 42.89 -22.61 40.34 -22.62 37.78 C-22.64 34.29 -22.63 30.8 -22.61 27.31 C-22.63 26.3 -22.64 25.29 -22.65 24.26 C-22.57 17.27 -20.97 11.81 -17 6 C-11.77 1 -7.09 -0.13 0 0 Z " fill="#000000" transform="translate(43,128)"/>
<path d="M0 0 C6.76 -0.15 10.38 0.82 15.62 5.19 C21.47 12.1 22.59 18.13 22.51 27.04 C22.51 28.14 22.52 29.23 22.53 30.35 C22.54 34 22.53 37.64 22.52 41.29 C22.52 43.91 22.53 46.53 22.54 49.15 C22.56 55.51 22.55 61.88 22.54 68.25 C22.53 73.43 22.53 78.6 22.54 83.78 C22.54 84.52 22.54 85.26 22.54 86.02 C22.54 87.51 22.54 89.01 22.54 90.51 C22.55 104.55 22.54 118.6 22.52 132.64 C22.5 144.68 22.5 156.72 22.52 168.76 C22.54 182.75 22.55 196.75 22.54 210.74 C22.54 212.23 22.54 213.73 22.54 215.22 C22.53 216.32 22.53 216.32 22.53 217.45 C22.53 222.61 22.54 227.78 22.55 232.95 C22.56 239.91 22.55 246.87 22.53 253.83 C22.52 256.39 22.52 258.94 22.53 261.49 C22.54 264.98 22.53 268.47 22.51 271.96 C22.52 272.97 22.53 273.98 22.53 275.02 C22.46 282.17 20.98 287.55 16.25 293.02 C15.7 293.47 15.14 293.92 14.56 294.38 C14.01 294.84 13.45 295.3 12.88 295.77 C8.18 298.84 3.88 299.29 -1.62 299.24 C-2.76 299.24 -2.76 299.24 -3.93 299.25 C-6.47 299.25 -9.01 299.24 -11.55 299.23 C-13.37 299.23 -15.2 299.23 -17.02 299.23 C-21.97 299.23 -26.92 299.22 -31.86 299.2 C-37.04 299.19 -42.21 299.19 -47.38 299.19 C-57.17 299.18 -66.96 299.16 -76.76 299.14 C-87.9 299.12 -99.05 299.11 -110.2 299.1 C-133.13 299.08 -156.07 299.04 -179 299 C-161.7 281.05 -124.26 279.69 -101 278 C-99.82 277.91 -98.65 277.83 -97.44 277.74 C-89.19 277.18 -80.96 276.9 -72.7 276.79 C-71.72 276.77 -70.74 276.76 -69.73 276.75 C-65.7 276.69 -61.66 276.63 -57.62 276.6 C-41.28 276.45 -26.37 276.29 -13.55 264.81 C-3.53 254.5 -0.86 243.14 -0.84 229.21 C-0.84 228.22 -0.83 227.24 -0.83 226.23 C-0.81 222.95 -0.8 219.66 -0.79 216.38 C-0.79 214.02 -0.78 211.67 -0.76 209.31 C-0.74 202.92 -0.72 196.52 -0.7 190.13 C-0.68 184.13 -0.65 178.12 -0.63 172.11 C-0.58 160.22 -0.54 148.33 -0.5 136.44 C-0.46 124.88 -0.42 113.33 -0.37 101.78 C-0.37 100.71 -0.37 100.71 -0.36 99.62 C-0.35 96.05 -0.34 92.48 -0.32 88.9 C-0.21 59.27 -0.1 29.63 0 0 Z " fill="#000000" transform="translate(469,128)"/>
</svg>
