<?xml version="1.0" encoding="UTF-8"?>
<!-- Generator: visioncortex VTracer 0.6.4 -->
<svg version="1.1" xmlns="http://www.w3.org/2000/svg" width="512" height="512">
<path d="M0 0 C1.19 -0.01 2.38 -0.01 3.61 -0.02 C6.84 -0.04 10.07 -0.04 13.3 -0.03 C16.01 -0.03 18.73 -0.03 21.44 -0.04 C27.85 -0.05 34.26 -0.05 40.67 -0.04 C47.25 -0.03 53.82 -0.04 60.4 -0.07 C66.08 -0.09 71.76 -0.1 77.44 -0.09 C80.82 -0.09 84.19 -0.09 87.57 -0.11 C91.35 -0.13 95.12 -0.11 98.89 -0.1 C99.99 -0.11 101.08 -0.12 102.21 -0.13 C112.98 -0.03 123.32 2.27 131.64 9.42 C138.4 16.35 142.92 24.87 142.91 34.65 C142.9 35.37 142.88 36.1 142.87 36.84 C142.86 37.61 142.86 38.37 142.85 39.16 C142.84 41.58 142.8 43.99 142.76 46.4 C142.75 48.05 142.73 49.7 142.72 51.35 C142.69 55.37 142.64 59.39 142.57 63.4 C143.17 63.4 143.76 63.4 144.37 63.4 C158.86 63.33 173.34 63.28 187.82 63.25 C194.83 63.23 201.83 63.21 208.83 63.18 C215.6 63.14 222.36 63.13 229.12 63.12 C231.7 63.11 234.27 63.1 236.85 63.09 C240.47 63.06 244.08 63.06 247.7 63.06 C248.76 63.05 249.82 63.04 250.91 63.03 C262.87 63.08 272.42 66.49 281.26 74.59 C287.64 81.27 290.69 89.37 290.71 98.52 C290.71 99.53 290.72 100.54 290.72 101.59 C290.72 103.25 290.72 103.25 290.72 104.94 C290.73 106.12 290.73 107.3 290.73 108.52 C290.74 111.79 290.75 115.07 290.75 118.34 C290.75 121.87 290.76 125.41 290.77 128.94 C290.79 137.47 290.8 146 290.81 154.53 C290.81 158.54 290.82 162.56 290.83 166.58 C290.84 179.95 290.86 193.31 290.86 206.68 C290.87 210.15 290.87 213.61 290.87 217.08 C290.87 217.94 290.87 218.8 290.87 219.69 C290.88 233.64 290.9 247.6 290.94 261.55 C290.97 275.88 290.99 290.22 290.99 304.55 C290.99 312.6 291 320.64 291.03 328.69 C291.05 335.54 291.06 342.39 291.05 349.24 C291.04 352.74 291.05 356.23 291.06 359.72 C291.08 363.52 291.08 367.31 291.06 371.11 C291.08 372.74 291.08 372.74 291.1 374.42 C291 385.72 287.81 394.13 279.93 402.24 C268.97 412.29 256.69 412.85 242.49 412.79 C240.76 412.79 239.03 412.79 237.29 412.8 C232.55 412.81 227.8 412.81 223.05 412.8 C217.93 412.79 212.8 412.8 207.67 412.81 C197.64 412.82 187.6 412.82 177.57 412.81 C169.41 412.8 161.26 412.8 153.1 412.81 C151.36 412.81 151.36 412.81 149.58 412.81 C147.22 412.81 144.86 412.81 142.5 412.81 C120.38 412.82 98.26 412.81 76.15 412.79 C57.17 412.78 38.2 412.78 19.22 412.8 C-2.82 412.81 -24.86 412.82 -46.9 412.81 C-49.25 412.81 -51.6 412.81 -53.95 412.81 C-55.11 412.81 -56.26 412.8 -57.45 412.8 C-65.6 412.8 -73.75 412.81 -81.89 412.81 C-91.82 412.82 -101.75 412.82 -111.68 412.8 C-116.74 412.8 -121.81 412.79 -126.87 412.8 C-131.51 412.81 -136.15 412.81 -140.79 412.79 C-142.46 412.79 -144.14 412.79 -145.81 412.8 C-160.02 412.85 -171.31 411.11 -182.11 401.22 C-188.11 394.96 -191.54 387.04 -191.56 378.41 C-191.56 377.4 -191.56 376.39 -191.57 375.34 C-191.57 374.23 -191.57 373.12 -191.57 371.98 C-191.57 370.8 -191.57 369.62 -191.57 368.4 C-191.58 365.13 -191.58 361.85 -191.59 358.57 C-191.59 355.03 -191.59 351.5 -191.6 347.96 C-191.62 340.23 -191.62 332.5 -191.63 324.77 C-191.63 319.94 -191.63 315.11 -191.64 310.28 C-191.65 296.91 -191.66 283.53 -191.66 270.16 C-191.66 269.3 -191.66 268.45 -191.66 267.57 C-191.66 266.71 -191.66 265.85 -191.66 264.97 C-191.66 263.23 -191.67 261.49 -191.67 259.75 C-191.67 258.89 -191.67 258.03 -191.67 257.14 C-191.67 243.17 -191.69 229.2 -191.71 215.24 C-191.73 200.89 -191.75 186.55 -191.75 172.2 C-191.75 164.15 -191.75 156.1 -191.77 148.05 C-191.79 141.19 -191.79 134.33 -191.79 127.47 C-191.78 123.97 -191.78 120.48 -191.8 116.98 C-191.81 113.18 -191.8 109.39 -191.79 105.59 C-191.8 103.94 -191.8 103.94 -191.82 102.27 C-191.74 90.41 -188.84 82.02 -180.57 73.49 C-173.37 66.73 -165.29 63.27 -155.38 63.28 C-154.39 63.28 -153.4 63.28 -152.38 63.28 C-151.3 63.28 -150.23 63.29 -149.12 63.29 C-147.98 63.29 -146.83 63.29 -145.66 63.29 C-141.89 63.29 -138.11 63.3 -134.34 63.31 C-131.73 63.31 -129.11 63.31 -126.5 63.31 C-120.32 63.31 -114.14 63.32 -107.96 63.33 C-100.92 63.34 -93.88 63.35 -86.84 63.35 C-72.37 63.36 -57.9 63.38 -43.43 63.4 C-43.45 62.41 -43.48 61.41 -43.5 60.38 C-43.6 56.62 -43.65 52.87 -43.7 49.11 C-43.72 47.49 -43.76 45.88 -43.8 44.26 C-44.13 31.94 -43.09 22.01 -35.11 11.97 C-25.4 1.9 -13.54 -0.06 0 0 Z M-18.43 26.4 C-24.91 36.4 -24.91 36.4 -22.43 63.4 C25.09 63.4 72.61 63.4 121.57 63.4 C124.22 36.07 124.22 36.07 116.57 25.4 C113.14 22.67 110.65 22.03 106.31 22.02 C105.26 22.01 104.22 22 103.15 21.99 C101.45 21.99 101.45 21.99 99.72 22 C98.52 21.99 97.32 21.99 96.08 21.98 C92.8 21.96 89.51 21.96 86.23 21.97 C83.48 21.97 80.73 21.97 77.99 21.96 C71.51 21.95 65.03 21.95 58.55 21.96 C51.87 21.97 45.19 21.96 38.52 21.93 C32.78 21.91 27.04 21.9 21.3 21.91 C17.87 21.91 14.45 21.91 11.02 21.89 C7.2 21.87 3.38 21.89 -0.44 21.9 C-2.14 21.89 -2.14 21.89 -3.87 21.87 C-9.83 21.93 -13.92 22.07 -18.43 26.4 Z M-166.43 89.4 C-170.22 94.46 -170.55 98.92 -170.59 105.12 C-170.59 105.79 -170.6 106.46 -170.6 107.14 C-170.62 109.35 -170.62 111.56 -170.63 113.76 C-170.63 114.52 -170.63 115.28 -170.64 116.07 C-170.65 120.1 -170.66 124.13 -170.67 128.16 C-170.67 132.28 -170.69 136.4 -170.72 140.53 C-170.74 143.73 -170.75 146.93 -170.75 150.14 C-170.75 151.65 -170.76 153.17 -170.77 154.69 C-170.88 167.96 -170.25 181.98 -163.68 193.84 C-163.33 194.5 -162.98 195.16 -162.62 195.85 C-159.74 201.14 -156.47 205.93 -152.43 210.4 C-151.9 211.01 -151.37 211.62 -150.82 212.25 C-141.26 222.59 -125.92 230.62 -111.77 231.58 C-108.65 231.65 -105.53 231.65 -102.41 231.63 C-100.64 231.63 -100.64 231.63 -98.83 231.63 C-94.94 231.63 -91.06 231.62 -87.18 231.6 C-84.47 231.59 -81.77 231.59 -79.07 231.59 C-72.7 231.58 -66.33 231.57 -59.96 231.55 C-52.7 231.53 -45.44 231.51 -38.19 231.5 C-23.27 231.48 -8.35 231.45 6.57 231.4 C6.59 230.5 6.61 229.59 6.63 228.65 C6.71 225.27 6.8 221.88 6.89 218.49 C6.93 217.03 6.97 215.56 7 214.1 C7.04 211.99 7.1 209.88 7.16 207.77 C7.19 206.5 7.22 205.24 7.26 203.93 C7.64 199.66 8.43 196.18 10.76 192.55 C13.62 190.74 16.18 191.01 19.54 191 C20.24 190.99 20.95 190.99 21.67 190.98 C24 190.96 26.33 190.96 28.66 190.97 C30.28 190.97 31.9 190.96 33.52 190.95 C36.92 190.95 40.32 190.95 43.72 190.96 C48.07 190.97 52.42 190.95 56.77 190.92 C60.11 190.9 63.46 190.9 66.81 190.91 C68.41 190.91 70.01 190.9 71.62 190.89 C73.86 190.87 76.11 190.89 78.35 190.9 C80.27 190.9 80.27 190.9 82.22 190.9 C86.21 191.5 87.85 192.46 90.57 195.4 C91.93 199.34 91.77 203.53 91.89 207.67 C91.91 208.35 91.93 209.04 91.95 209.74 C92.02 211.9 92.08 214.06 92.14 216.22 C92.18 217.69 92.22 219.16 92.27 220.63 C92.37 224.22 92.48 227.81 92.57 231.4 C108.07 231.52 123.57 231.61 139.08 231.66 C146.27 231.69 153.47 231.72 160.67 231.78 C166.95 231.83 173.23 231.86 179.52 231.87 C182.84 231.88 186.15 231.9 189.47 231.93 C213.01 232.16 232.27 229.47 249.78 212.32 C266.26 195.49 270.08 175.16 269.97 152.56 C269.98 151 269.98 149.45 269.98 147.9 C269.99 144.68 269.98 141.46 269.97 138.25 C269.95 134.14 269.96 130.03 269.98 125.92 C269.99 122.73 269.98 119.54 269.98 116.35 C269.97 114.83 269.98 113.32 269.98 111.8 C269.99 109.69 269.98 107.58 269.96 105.46 C269.96 104.26 269.96 103.07 269.96 101.83 C269.23 95.28 266.65 90.72 261.57 86.4 C258.09 85.24 255.38 85.28 251.7 85.27 C250.99 85.27 250.28 85.27 249.55 85.26 C247.17 85.26 244.78 85.26 242.39 85.26 C240.67 85.25 238.95 85.25 237.23 85.25 C232.48 85.24 227.74 85.23 222.99 85.23 C217.88 85.23 212.76 85.22 207.65 85.21 C195.3 85.19 182.95 85.18 170.59 85.17 C164.78 85.16 158.96 85.16 153.15 85.15 C133.83 85.14 114.51 85.12 95.19 85.11 C90.17 85.11 85.16 85.11 80.14 85.11 C78.27 85.11 78.27 85.11 76.37 85.11 C56.16 85.1 35.96 85.07 15.76 85.04 C-4.97 85.01 -25.7 84.99 -46.43 84.99 C-58.08 84.98 -69.72 84.98 -81.36 84.95 C-91.28 84.93 -101.19 84.92 -111.11 84.93 C-116.17 84.94 -121.23 84.93 -126.29 84.91 C-130.92 84.9 -135.55 84.9 -140.18 84.91 C-141.86 84.92 -143.53 84.91 -145.21 84.9 C-147.49 84.88 -149.77 84.89 -152.04 84.91 C-153.31 84.91 -154.58 84.91 -155.88 84.91 C-160.35 85.53 -162.69 86.89 -166.43 89.4 Z M28.57 211.4 C28.57 231.86 28.57 252.32 28.57 273.4 C42.43 273.4 56.29 273.4 70.57 273.4 C70.57 252.94 70.57 232.48 70.57 211.4 C56.71 211.4 42.85 211.4 28.57 211.4 Z M-170.43 223.4 C-170.5 243.36 -170.55 263.32 -170.58 283.28 C-170.6 292.55 -170.62 301.81 -170.65 311.08 C-170.68 319.16 -170.7 327.24 -170.71 335.31 C-170.71 339.59 -170.72 343.87 -170.74 348.14 C-170.76 352.17 -170.77 356.2 -170.76 360.23 C-170.77 361.7 -170.77 363.18 -170.78 364.65 C-170.97 376.99 -170.97 376.99 -164.86 387.28 C-160.96 390.68 -158.78 390.53 -153.64 390.54 C-152.93 390.54 -152.22 390.54 -151.49 390.55 C-149.08 390.55 -146.68 390.55 -144.28 390.55 C-142.55 390.55 -140.82 390.56 -139.09 390.56 C-134.32 390.57 -129.55 390.58 -124.77 390.58 C-119.63 390.58 -114.49 390.59 -109.35 390.6 C-96.93 390.62 -84.51 390.63 -72.09 390.64 C-66.24 390.64 -60.4 390.65 -54.55 390.65 C-35.13 390.67 -15.71 390.69 3.71 390.69 C8.75 390.7 13.8 390.7 18.84 390.7 C20.09 390.7 21.35 390.7 22.64 390.7 C42.95 390.71 63.26 390.73 83.58 390.77 C104.42 390.8 125.26 390.82 146.1 390.82 C157.8 390.82 169.51 390.83 181.22 390.86 C191.19 390.88 201.16 390.89 211.12 390.88 C216.21 390.87 221.3 390.87 226.39 390.89 C231.04 390.91 235.7 390.91 240.36 390.9 C242.04 390.89 243.73 390.9 245.42 390.91 C247.71 390.92 249.99 390.91 252.28 390.9 C253.56 390.9 254.83 390.9 256.14 390.9 C260.22 390.31 262.37 388.96 265.57 386.4 C269.22 381.37 269.7 377.19 269.69 371.08 C269.7 369.78 269.7 368.47 269.7 367.13 C269.7 365.69 269.69 364.25 269.69 362.81 C269.69 361.3 269.69 359.78 269.69 358.26 C269.69 354.14 269.68 350.02 269.68 345.9 C269.67 341.6 269.67 337.29 269.67 332.98 C269.66 324.83 269.66 316.68 269.65 308.53 C269.64 299.25 269.63 289.96 269.63 280.68 C269.61 261.59 269.6 242.5 269.57 223.4 C268.46 224.36 267.34 225.32 266.22 226.28 C265.6 226.81 264.98 227.34 264.34 227.89 C262.96 229.08 261.57 230.27 260.2 231.46 C242 246.63 221.83 252.67 198.27 252.72 C197.11 252.73 195.96 252.74 194.77 252.75 C191.01 252.78 187.25 252.8 183.49 252.82 C180.87 252.84 178.24 252.86 175.61 252.88 C169.44 252.92 163.26 252.96 157.08 252.99 C150.04 253.03 143 253.08 135.96 253.13 C121.5 253.23 107.04 253.32 92.57 253.4 C92.56 254.34 92.55 255.27 92.53 256.23 C92.47 259.72 92.39 263.2 92.31 266.69 C92.28 268.2 92.25 269.7 92.23 271.2 C92.19 273.38 92.14 275.55 92.09 277.72 C92.06 279.02 92.03 280.33 92.01 281.67 C91.5 286.02 90.73 288.6 88.57 292.4 C84.84 294.74 81.19 294.66 76.86 294.68 C76.21 294.68 75.55 294.69 74.88 294.69 C72.73 294.71 70.57 294.71 68.42 294.7 C66.92 294.71 65.42 294.71 63.91 294.72 C60.77 294.73 57.62 294.72 54.47 294.72 C50.45 294.71 46.43 294.73 42.41 294.75 C39.3 294.77 36.2 294.77 33.1 294.77 C31.61 294.77 30.13 294.77 28.65 294.78 C26.57 294.79 24.5 294.79 22.42 294.78 C20.65 294.78 20.65 294.78 18.84 294.78 C15.05 294.34 12.73 293.57 9.57 291.4 C7.38 286.99 7.28 282.7 7.16 277.82 C7.13 276.77 7.13 276.77 7.1 275.69 C7.04 273.47 7 271.25 6.95 269.03 C6.91 267.51 6.87 266 6.83 264.49 C6.74 260.79 6.65 257.1 6.57 253.4 C5.68 253.4 5.68 253.4 4.78 253.4 C-9.73 253.34 -24.24 253.26 -38.75 253.17 C-45.77 253.12 -52.79 253.08 -59.8 253.06 C-66.59 253.03 -73.37 252.99 -80.15 252.94 C-82.73 252.92 -85.3 252.91 -87.88 252.91 C-117.79 252.83 -143.11 248.52 -165.44 227.25 C-167.49 225.25 -167.49 225.25 -170.43 223.4 Z " fill="#000000" transform="translate(206.42529296875,49.595947265625)"/>
</svg>
