<?xml version="1.0" encoding="UTF-8"?>
<!-- Generator: visioncortex VTracer 0.6.4 -->
<svg version="1.1" xmlns="http://www.w3.org/2000/svg" width="512" height="512">
<path d="M0 0 C6.24 3.68 9.66 8.54 11.62 15.44 C11.88 18.6 11.88 18.6 11.89 22.06 C11.89 22.71 11.89 23.35 11.9 24.01 C11.91 26.17 11.91 28.32 11.9 30.47 C11.91 32.03 11.91 33.59 11.92 35.15 C11.94 39.44 11.94 43.72 11.94 48.01 C11.95 52.63 11.96 57.25 11.97 61.87 C12 69.88 12.01 77.88 12.02 85.89 C12.04 97.47 12.06 109.04 12.09 120.62 C12.14 139.4 12.17 158.18 12.2 176.96 C12.23 195.21 12.27 213.45 12.31 231.7 C12.31 233.38 12.31 233.38 12.32 235.1 C12.33 240.74 12.34 246.39 12.35 252.03 C12.46 298.83 12.55 345.63 12.62 392.44 C13.95 391.09 13.95 391.09 15.31 389.72 C23.67 381.28 32.04 372.85 40.43 364.43 C44.73 360.1 49.04 355.77 53.34 351.43 C57.48 347.23 61.64 343.05 65.8 338.88 C67.39 337.29 68.97 335.69 70.55 334.09 C72.76 331.85 74.99 329.62 77.22 327.39 C77.87 326.72 78.52 326.06 79.18 325.38 C84.21 320.4 89.2 317.01 96.56 317 C102.76 317.23 107.13 319.04 111.61 323.34 C116.22 328.45 118.91 332.14 119 339.19 C119.03 340.17 119.06 341.16 119.09 342.17 C117.71 351.9 110.71 357.92 104.06 364.49 C102.97 365.58 101.89 366.67 100.8 367.76 C97.87 370.7 94.92 373.63 91.97 376.56 C88.88 379.64 85.8 382.72 82.72 385.8 C77.54 390.98 72.36 396.14 67.17 401.3 C61.18 407.26 55.2 413.23 49.22 419.21 C42.85 425.58 36.47 431.95 30.09 438.31 C28.26 440.14 26.42 441.98 24.59 443.81 C21.71 446.69 18.82 449.56 15.93 452.43 C14.87 453.49 13.81 454.54 12.76 455.6 C11.31 457.04 9.86 458.48 8.41 459.92 C7.6 460.72 6.8 461.53 5.96 462.36 C0.24 467.45 -5.02 468.94 -12.55 468.75 C-22.58 467.64 -29.54 459.98 -36.25 453.16 C-37.3 452.11 -38.35 451.07 -39.4 450.03 C-42.22 447.21 -45.03 444.39 -47.83 441.55 C-50.78 438.58 -53.74 435.62 -56.7 432.66 C-61.67 427.69 -66.62 422.72 -71.57 417.73 C-77.28 411.98 -83 406.24 -88.73 400.5 C-94.85 394.38 -100.97 388.25 -107.07 382.12 C-108.83 380.36 -110.58 378.6 -112.34 376.84 C-115.1 374.07 -117.85 371.3 -120.61 368.52 C-121.61 367.51 -122.62 366.5 -123.63 365.48 C-138.46 350.65 -138.46 350.65 -138.69 340.25 C-138.62 333.54 -137.58 328.86 -132.95 323.91 C-127.99 319.48 -123.48 318.15 -116.94 318.12 C-115.85 318.11 -114.75 318.09 -113.63 318.07 C-107.4 318.77 -103.35 322.06 -98.88 326.25 C-98.37 326.73 -97.86 327.21 -97.33 327.7 C-90.85 333.8 -84.58 340.11 -78.3 346.42 C-76.99 347.73 -75.69 349.03 -74.38 350.34 C-70.98 353.74 -67.59 357.14 -64.2 360.54 C-60.72 364.03 -57.24 367.52 -53.76 371 C-46.96 377.81 -40.17 384.62 -33.38 391.44 C-33.37 390.25 -33.37 390.25 -33.37 389.04 C-33.34 342.24 -33.28 295.43 -33.2 248.63 C-33.19 243.01 -33.18 237.39 -33.17 231.77 C-33.16 230.09 -33.16 230.09 -33.16 228.38 C-33.13 210.26 -33.11 192.15 -33.1 174.03 C-33.09 155.44 -33.06 136.85 -33.02 118.27 C-33 106.8 -32.98 95.33 -32.98 83.86 C-32.98 75.99 -32.97 68.12 -32.94 60.26 C-32.93 55.72 -32.92 51.18 -32.93 46.65 C-32.94 42.49 -32.93 38.33 -32.9 34.17 C-32.9 32.67 -32.9 31.17 -32.91 29.67 C-32.95 20.72 -32.97 11.51 -26.63 4.51 C-19.41 -2.2 -9.15 -4.11 0 0 Z " fill="#000000" transform="translate(266.375,22.5625)"/>
</svg>
