<?xml version="1.0" encoding="UTF-8"?>
<!-- Generator: visioncortex VTracer 0.6.4 -->
<svg version="1.1" xmlns="http://www.w3.org/2000/svg" width="512" height="512">
<path d="M0 0 C18.8 0.42 36.23 9.43 52.55 17.95 C53.27 18.32 53.99 18.68 54.73 19.07 C58.86 21.26 62.12 23.69 65.68 26.76 C70.6 30.01 74.3 29.31 79.82 28.22 C84.05 27.25 88.25 26.19 92.46 25.12 C124.41 17.62 159.09 18.99 191.24 24.32 C192.25 24.49 193.25 24.65 194.29 24.82 C198.52 25.55 202.64 26.32 206.74 27.62 C213.33 29.65 213.33 29.65 219.83 27.95 C222.2 26.48 224.43 24.85 226.67 23.2 C243.66 10.67 267.8 -0.16 289.24 0.26 C290.45 0.28 291.66 0.29 292.9 0.31 C293.8 0.34 294.69 0.36 295.61 0.38 C298.4 5.96 300.29 11.42 301.8 17.45 C302.05 18.44 302.05 18.44 302.3 19.45 C306.67 37.55 305.6 56.63 300.77 74.51 C300.33 77.47 300.33 77.47 302.2 79.88 C302.98 80.71 303.75 81.53 304.55 82.38 C322.2 102.64 328.84 128.59 328.86 154.95 C328.86 155.68 328.86 156.41 328.86 157.17 C328.81 194.73 319.64 230.15 292.74 257.57 C287.77 262.52 282.56 266.64 276.61 270.38 C275.91 270.87 275.2 271.35 274.47 271.86 C265.92 277.47 256.18 280.89 246.61 284.38 C245.92 284.63 245.23 284.89 244.52 285.15 C230.09 290.25 214.69 292.08 199.61 294.38 C200.09 295.12 200.56 295.86 201.05 296.63 C201.67 297.61 202.3 298.58 202.94 299.59 C203.56 300.56 204.18 301.53 204.82 302.52 C215.13 318.96 216.2 335.71 216.15 354.65 C216.16 356.74 216.17 358.84 216.19 360.93 C216.22 366.39 216.23 371.84 216.23 377.3 C216.24 386.07 216.28 394.84 216.33 403.61 C216.34 406.66 216.34 409.72 216.34 412.77 C216.34 414.63 216.35 416.5 216.36 418.36 C216.35 419.21 216.35 420.05 216.34 420.92 C216.37 425.15 216.5 428.6 218.61 432.38 C223.46 435.66 228.94 436.43 234.61 437.38 C234.61 437.71 234.61 438.04 234.61 438.38 C222.82 438.56 211.03 438.73 199.24 438.88 C197.88 438.9 197.88 438.9 196.5 438.92 C163.48 439.35 130.45 439.47 97.43 439.45 C96.32 439.44 95.22 439.44 94.09 439.44 C80.6 439.43 67.1 439.41 53.61 439.38 C53.61 439.05 53.61 438.72 53.61 438.38 C54.35 438.28 55.08 438.19 55.84 438.09 C63.53 436.98 63.53 436.98 69.61 432.38 C70.61 429.4 70.73 427.47 70.73 424.36 C70.73 423.34 70.73 422.32 70.73 421.27 C70.72 420.17 70.72 419.07 70.71 417.93 C70.71 416.81 70.71 415.68 70.71 414.52 C70.7 410.91 70.69 407.3 70.68 403.7 C70.67 401.25 70.67 398.81 70.66 396.37 C70.65 390.37 70.63 384.38 70.61 378.38 C69.84 378.52 69.06 378.66 68.26 378.81 C60.01 380.2 52.03 380.73 43.68 380.7 C42.45 380.69 41.22 380.69 39.95 380.68 C20.04 380.42 2.02 374.6 -12.64 360.63 C-19.8 353.09 -24.25 344.92 -28.32 335.45 C-34.78 320.44 -43.92 307.8 -57.39 298.38 C-59 297.19 -60.6 295.98 -62.2 294.76 C-63.29 293.93 -63.29 293.93 -64.41 293.09 C-66.45 291.33 -67.94 289.66 -69.39 287.38 C-69.57 284.63 -69.57 284.63 -69.39 282.38 C-62.93 277.96 -55.18 278.54 -47.71 279.85 C-31.09 284.31 -17.84 296.43 -8.95 310.82 C-0.37 324.61 11.46 334.14 27.4 337.97 C31.3 338.7 35.15 338.76 39.11 338.76 C39.98 338.76 40.85 338.76 41.74 338.76 C50.14 338.61 57.6 336.85 65.61 334.38 C67.94 333.71 70.28 333.05 72.61 332.38 C72.63 331.73 72.64 331.07 72.66 330.4 C73.33 317.48 79.28 304.45 88.61 295.38 C87.32 295.16 87.32 295.16 85.99 294.93 C50.6 288.71 17.61 280.84 -8.39 254.38 C-9.14 253.63 -9.88 252.88 -10.65 252.11 C-36.49 224.7 -42.24 184.56 -41.64 148.38 C-40.84 123.11 -31.51 96.77 -13.52 78.48 C-12.06 76.3 -12.06 76.3 -12.93 73.18 C-13.33 71.99 -13.73 70.8 -14.14 69.57 C-21.07 48.37 -18.75 21.65 -9.39 1.38 C-7.19 -0.81 -2.95 0.01 0 0 Z " fill="#000000" transform="translate(126.387451171875,35.6171875)"/>
</svg>
