<?xml version="1.0" encoding="UTF-8"?>
<!-- Generator: visioncortex VTracer 0.6.4 -->
<svg version="1.1" xmlns="http://www.w3.org/2000/svg" width="512" height="512">
<path d="M0 0 C0.82 0.2 1.64 0.4 2.49 0.6 C34.6 8.55 62.23 24.09 86 47 C86.83 47.76 87.65 48.53 88.5 49.31 C118.07 77.4 137.04 120.5 138.27 161.19 C138.61 178.07 137.96 193.72 133 210 C132.69 211.01 132.39 212.02 132.07 213.06 C110.1 283.76 65.94 348.4 23 408 C21.96 409.45 20.93 410.89 19.89 412.34 C16.61 416.9 13.31 421.45 10 426 C9.44 426.78 8.87 427.55 8.29 428.35 C0.22 439.42 -8.03 450.33 -16.5 461.08 C-17.83 462.78 -19.14 464.49 -20.45 466.21 C-24.75 471.8 -28.3 475.95 -35.31 477.94 C-41.05 478.03 -45.59 477.11 -50 473.25 C-52.13 470.92 -54.07 468.5 -56 466 C-56.71 465.1 -57.43 464.19 -58.16 463.26 C-60.28 460.54 -62.36 457.8 -64.44 455.05 C-66.21 452.72 -67.99 450.41 -69.77 448.09 C-77.09 438.57 -84.25 428.97 -91.11 419.11 C-92.99 416.42 -94.9 413.75 -96.86 411.11 C-106.78 397.63 -115.97 383.68 -125.2 369.73 C-128.16 365.26 -131.15 360.8 -134.15 356.35 C-164.23 311.65 -192.47 263.17 -208.38 211.44 C-208.6 210.7 -208.83 209.96 -209.06 209.21 C-212.83 196.37 -214.53 184.07 -214.38 170.75 C-214.37 170.03 -214.37 169.31 -214.36 168.57 C-214.27 157.16 -213.68 146.12 -211 135 C-210.81 134.18 -210.61 133.36 -210.41 132.52 C-202.57 100.38 -186.87 72.72 -164 49 C-163.24 48.17 -162.47 47.35 -161.69 46.5 C-138.76 22.37 -107.89 7.89 -76 0 C-75.24 -0.19 -74.48 -0.39 -73.7 -0.59 C-51.27 -6.02 -22.34 -5.61 0 0 Z M-83.75 112.19 C-97.11 126.68 -102.26 143.18 -101.48 162.64 C-100.3 179.41 -92.14 193.56 -80 205 C-66.47 216.15 -50.67 221.43 -33.18 220.88 C-14.79 219.02 0.03 210.59 12.04 196.53 C23.89 181.26 26.5 164.86 25 146 C22.28 128.84 11.6 114.32 -2.19 104.19 C-28.43 86.4 -61.05 91.58 -83.75 112.19 Z " fill="#000000" transform="translate(294,19)"/>
</svg>
