<?xml version="1.0" encoding="UTF-8"?>
<!-- Generator: visioncortex VTracer 0.6.4 -->
<svg version="1.1" xmlns="http://www.w3.org/2000/svg" width="512" height="512">
<path d="M0 0 C1.18 -0.02 1.18 -0.02 2.39 -0.03 C7.05 0.04 9.78 0.76 13.56 3.44 C19.13 9.81 23.06 17.64 27.07 25.04 C28.09 26.93 29.12 28.82 30.16 30.71 C31.59 33.33 33.03 35.95 34.46 38.58 C51.32 70.44 51.32 70.44 70.62 100.81 C75.98 108.33 81.05 115.86 80.56 125.44 C76.72 144.66 51.71 159.56 37.41 170.95 C22.96 181.98 22.96 181.98 14.94 197.62 C16.93 209.8 23.63 220.2 29.94 230.56 C30.77 231.95 31.61 233.34 32.44 234.73 C48.86 262.07 67.22 287.18 89 310.5 C89.62 311.17 90.23 311.84 90.87 312.53 C95.19 317.15 99.76 321.32 104.56 325.44 C106.11 326.85 107.65 328.27 109.19 329.69 C117.99 337.61 127.41 344.71 137.06 351.56 C138.02 352.24 138.02 352.24 139 352.94 C149.78 360.5 160.98 367.41 172.35 374.05 C174.2 375.13 176.04 376.22 177.88 377.31 C193.66 387.57 193.66 387.57 211.56 390.44 C223.28 384.93 231.72 373.32 239.56 363.44 C268.17 327.55 268.17 327.55 280.56 325.44 C291.42 324.91 300.4 331.5 308.88 337.5 C317.99 343.94 327.64 349.31 337.4 354.69 C340.64 356.48 343.86 358.27 347.09 360.07 C360.09 367.31 360.09 367.31 373.13 374.49 C375.58 375.83 378.03 377.18 380.48 378.53 C382.2 379.47 383.91 380.41 385.63 381.34 C403.06 390.94 403.06 390.94 405.56 397.44 C406 400.33 406.04 403.15 406 406.06 C405.99 406.9 405.99 407.73 405.98 408.59 C405.75 417.82 403.89 426.53 401.56 435.44 C401.36 436.2 401.17 436.97 400.96 437.76 C394.27 463.25 379.64 477 357.56 490.44 C357 490.79 356.43 491.14 355.85 491.5 C343.86 498.86 331.21 504.2 317.75 508.25 C317.11 508.44 316.46 508.64 315.8 508.84 C304.66 512.02 293.61 512.85 282.06 512.81 C281.36 512.81 280.66 512.81 279.93 512.81 C253.16 512.72 228.08 504.09 203.25 494.69 C201.36 493.98 199.46 493.26 197.57 492.55 C179.14 485.61 160.78 478.56 143.34 469.36 C141.64 468.48 139.92 467.64 138.2 466.8 C119.88 457.59 102.53 445.25 86.56 432.44 C85.46 431.6 84.36 430.76 83.26 429.93 C77.27 425.42 71.54 420.74 66.02 415.64 C63.46 413.35 60.82 411.2 58.12 409.06 C53.2 405.08 48.76 400.76 44.36 396.21 C42.24 394.11 40.12 392.16 37.86 390.22 C32.84 385.88 28.18 381.2 23.5 376.5 C22.21 375.22 22.21 375.22 20.9 373.91 C16.45 369.46 12.15 364.95 8.07 360.16 C6.52 358.39 4.88 356.75 3.19 355.12 C-0.58 351.43 -3.82 347.37 -7.12 343.26 C-9.31 340.59 -11.59 338.04 -13.94 335.5 C-18.38 330.62 -22.29 325.45 -26.19 320.12 C-27.51 318.34 -28.86 316.58 -30.21 314.82 C-42.42 298.93 -53.1 282.16 -62.44 264.44 C-62.79 263.77 -63.15 263.1 -63.51 262.41 C-73.01 244.31 -80.25 225.17 -87.44 206.06 C-87.83 205.02 -88.23 203.97 -88.63 202.89 C-98.15 177.52 -106.89 152.34 -106.81 124.94 C-106.81 124.24 -106.81 123.54 -106.81 122.81 C-106.77 110.99 -105.78 99.82 -102.44 88.44 C-102.22 87.71 -102.01 86.97 -101.79 86.22 C-98.5 75.41 -93.84 65.34 -88.44 55.44 C-88.06 54.74 -87.67 54.03 -87.28 53.31 C-76.5 33.74 -63.78 14.99 -41.69 7.88 C-40.78 7.58 -39.86 7.28 -38.92 6.98 C-26.12 2.95 -13.46 0.13 0 0 Z " fill="#000000" transform="translate(106.4375,-0.4375)"/>
</svg>
