<?xml version="1.0" encoding="UTF-8"?>
<!-- Generator: visioncortex VTracer 0.6.4 -->
<svg version="1.1" xmlns="http://www.w3.org/2000/svg" width="512" height="512">
<path d="M0 0 C1.45 0 1.45 0 2.93 0.01 C17.26 0.05 31.21 0.56 45.31 3.31 C46.66 3.55 46.66 3.55 48.03 3.8 C96.72 12.61 141.74 36.05 177.31 70.31 C178.3 71.26 178.3 71.26 179.31 72.23 C188.8 81.37 197.54 90.67 205.31 101.31 C206.17 102.46 207.03 103.61 207.89 104.77 C213.92 112.96 219.31 121.46 224.31 130.31 C224.71 131.02 225.12 131.73 225.53 132.46 C238.55 155.58 247.28 180.72 252.62 206.69 C252.77 207.4 252.92 208.11 253.07 208.84 C256.06 224.48 256.69 240.12 256.62 256 C256.62 257.45 256.62 257.45 256.62 258.93 C256.57 273.26 256.07 287.21 253.31 301.31 C253.15 302.21 252.99 303.11 252.82 304.03 C244.01 352.72 220.57 397.74 186.31 433.31 C185.68 433.97 185.05 434.63 184.4 435.31 C175.25 444.8 165.96 453.54 155.31 461.31 C154.16 462.17 153.01 463.03 151.86 463.89 C143.67 469.92 135.17 475.31 126.31 480.31 C125.61 480.71 124.9 481.12 124.17 481.53 C101.05 494.55 75.9 503.28 49.94 508.62 C49.23 508.77 48.52 508.92 47.78 509.07 C32.14 512.06 16.51 512.69 0.62 512.62 C-0.34 512.62 -1.31 512.62 -2.31 512.62 C-16.64 512.57 -30.59 512.07 -44.69 509.31 C-45.58 509.15 -46.48 508.99 -47.41 508.82 C-96.09 500.01 -141.12 476.57 -176.69 442.31 C-177.35 441.68 -178.01 441.05 -178.69 440.4 C-188.17 431.25 -196.91 421.96 -204.69 411.31 C-205.55 410.16 -206.4 409.01 -207.26 407.86 C-213.3 399.67 -218.68 391.17 -223.69 382.31 C-224.09 381.61 -224.49 380.9 -224.91 380.17 C-237.92 357.05 -246.66 331.9 -252 305.94 C-252.22 304.87 -252.22 304.87 -252.45 303.78 C-255.43 288.14 -256.06 272.51 -256 256.62 C-256 255.66 -256 254.69 -255.99 253.69 C-255.95 239.36 -255.44 225.41 -252.69 211.31 C-252.45 209.97 -252.45 209.97 -252.2 208.59 C-243.39 159.91 -219.95 114.88 -185.69 79.31 C-185.06 78.65 -184.42 77.99 -183.77 77.31 C-174.63 67.83 -165.33 59.09 -154.69 51.31 C-153.54 50.45 -152.39 49.6 -151.23 48.74 C-143.04 42.7 -134.54 37.32 -125.69 32.31 C-124.98 31.91 -124.27 31.51 -123.54 31.09 C-100.42 18.08 -75.28 9.34 -49.31 4 C-48.25 3.78 -48.25 3.78 -47.16 3.55 C-31.52 0.57 -15.88 -0.06 0 0 Z M-46.69 35.31 C-47.53 35.49 -48.38 35.68 -49.24 35.86 C-98.72 46.84 -145.79 75.94 -176.69 116.31 C-177.12 116.87 -177.55 117.43 -177.99 118.01 C-184.92 127.06 -191.07 136.4 -196.69 146.31 C-197.03 146.9 -197.37 147.5 -197.72 148.11 C-210.45 170.3 -218.6 195.11 -222.69 220.31 C-222.95 221.91 -222.95 221.91 -223.23 223.54 C-224.85 234.27 -225.09 244.86 -225.06 255.69 C-225.06 256.61 -225.06 257.53 -225.06 258.49 C-225.03 273.46 -224.02 287.67 -220.69 302.31 C-220.49 303.2 -220.3 304.09 -220.1 305 C-212.12 341.39 -195.04 373.5 -171.69 402.31 C-169.51 401.5 -169.51 401.5 -168.88 399.31 C-168.49 398 -168.49 398 -168.09 396.67 C-167.79 395.69 -167.49 394.71 -167.18 393.71 C-166.85 392.65 -166.52 391.59 -166.19 390.5 C-160.96 374.23 -153.84 359.11 -143.69 345.31 C-142.55 343.75 -142.55 343.75 -141.39 342.16 C-121.2 314.91 -94.34 294.57 -62.69 282.31 C-62.69 281.32 -62.69 280.33 -62.69 279.31 C-64.61 277.48 -64.61 277.48 -67.12 275.69 C-76.2 268.66 -83.32 260.86 -89.69 251.31 C-90.28 250.42 -90.88 249.53 -91.5 248.61 C-106.12 225.27 -110.68 195.93 -105 169.06 C-100.97 151.79 -93.43 135.65 -81.69 122.31 C-81.01 121.49 -80.34 120.68 -79.64 119.83 C-63.56 100.9 -38.52 87.57 -13.69 85.31 C17.37 83.98 44.65 89.05 69.31 109.31 C70.16 110 71.02 110.69 71.89 111.39 C89.09 125.99 100.5 146.39 105.31 168.31 C105.5 169.14 105.68 169.97 105.87 170.83 C111.38 198.11 105.73 226.5 91.4 250.18 C83.79 261.6 73.92 272.83 62.31 280.31 C63.9 283.5 67.22 284.09 70.38 285.38 C111.93 303.01 145.07 336.45 162.47 378.15 C165.43 385.75 167.87 393.54 170.31 401.31 C173.26 401.65 173.26 401.65 174.67 400.04 C175.13 399.44 175.59 398.84 176.06 398.23 C176.58 397.55 177.1 396.88 177.64 396.18 C178.19 395.44 178.74 394.7 179.31 393.94 C179.89 393.17 180.46 392.41 181.05 391.62 C190.62 378.69 198.51 364.87 205.31 350.31 C205.62 349.67 205.92 349.03 206.23 348.37 C213.75 332.4 218.83 315.59 222.31 298.31 C222.46 297.62 222.61 296.92 222.77 296.21 C228.58 268.62 227.39 236.72 221.31 209.31 C221.13 208.47 220.95 207.62 220.76 206.76 C209.78 157.28 180.68 110.21 140.31 79.31 C139.75 78.88 139.19 78.45 138.62 78.01 C129.56 71.08 120.23 64.93 110.31 59.31 C109.72 58.97 109.13 58.63 108.52 58.28 C86.33 45.55 61.51 37.4 36.31 33.31 C34.71 33.05 34.71 33.05 33.08 32.77 C22.37 31.15 11.81 30.91 1 30.94 C-0.38 30.94 -0.38 30.94 -1.79 30.94 C-17.08 30.97 -31.71 31.99 -46.69 35.31 Z M-59.35 142.33 C-73.5 160.38 -79.14 181.88 -76.42 204.55 C-73.95 219.39 -66.8 233.26 -56.69 244.31 C-56.1 244.99 -55.51 245.68 -54.9 246.38 C-42.05 260.35 -22.73 268.44 -3.98 269.53 C17.75 270.25 36.53 263.02 53.03 249 C67.91 235.02 77.04 215.5 77.72 195.08 C77.99 173.46 70.43 153.45 55.59 137.5 C39.16 121.71 19.61 114.62 -2.84 114.84 C-24.96 115.51 -44.98 125.52 -59.35 142.33 Z M-30.69 304.31 C-31.72 304.51 -32.76 304.7 -33.82 304.9 C-60.49 310.63 -83.25 325.81 -102.69 344.31 C-103.33 344.91 -103.98 345.5 -104.64 346.11 C-126.34 366.64 -140.58 398.01 -144.06 427.46 C-143.95 430.43 -143.95 430.43 -141.77 432.41 C-140.83 433.06 -139.9 433.71 -138.94 434.38 C-138.41 434.74 -137.89 435.11 -137.35 435.49 C-135.48 436.79 -133.58 438.05 -131.69 439.31 C-130.94 439.82 -130.2 440.32 -129.43 440.84 C-90.65 467.1 -47.34 481.79 -0.31 481.69 C0.61 481.69 1.54 481.69 2.49 481.69 C17.45 481.65 31.69 480.71 46.31 477.31 C47.8 476.98 47.8 476.98 49.31 476.63 C61.67 473.76 73.6 470.18 85.31 465.31 C85.96 465.05 86.61 464.78 87.28 464.51 C102.71 458.22 116.88 450.05 130.53 440.52 C132.3 439.32 134.11 438.21 135.95 437.1 C141.79 433.53 141.79 433.53 145.04 427.82 C144.91 424.44 144.21 421.58 143.31 418.31 C142.91 416.69 142.51 415.06 142.11 413.44 C136.12 390.24 125.78 369.61 110.31 351.31 C109.23 350.01 109.23 350.01 108.12 348.69 C84.5 321.28 48.08 304.27 12.31 301.31 C-2.3 300.47 -16.36 301.38 -30.69 304.31 Z " fill="#000000" transform="translate(255.6875,-0.3125)"/>
</svg>
