<?xml version="1.0" encoding="UTF-8"?>
<!-- Generator: visioncortex VTracer 0.6.4 -->
<svg version="1.1" xmlns="http://www.w3.org/2000/svg" width="512" height="512">
<path d="M0 0 C0.79 -0 1.57 -0.01 2.39 -0.01 C5.05 -0.02 7.71 -0.02 10.37 -0.02 C12.28 -0.02 14.2 -0.03 16.12 -0.03 C21.41 -0.04 26.69 -0.05 31.98 -0.05 C37.68 -0.06 43.37 -0.07 49.07 -0.08 C62.83 -0.11 76.59 -0.12 90.36 -0.13 C94.24 -0.14 98.13 -0.14 102.02 -0.14 C126.14 -0.17 150.26 -0.19 174.39 -0.2 C179.98 -0.21 185.57 -0.21 191.15 -0.21 C191.85 -0.21 192.54 -0.21 193.26 -0.21 C215.77 -0.23 238.28 -0.26 260.79 -0.3 C284.59 -0.34 308.39 -0.37 332.19 -0.37 C345.17 -0.38 358.14 -0.39 371.11 -0.42 C382.16 -0.45 393.21 -0.46 404.26 -0.45 C409.9 -0.44 415.53 -0.45 421.17 -0.47 C426.34 -0.49 431.5 -0.49 436.66 -0.48 C438.53 -0.47 440.39 -0.48 442.26 -0.49 C453.67 -0.58 462.03 -0.09 471.19 7.45 C476.8 14.34 479.5 19.52 479.52 28.47 C479.52 29.78 479.52 31.1 479.53 32.45 C479.53 33.91 479.53 35.37 479.53 36.83 C479.53 38.37 479.54 39.92 479.54 41.47 C479.55 45.73 479.55 49.98 479.56 54.24 C479.56 58.83 479.57 63.42 479.58 68.01 C479.6 79.1 479.61 90.19 479.62 101.28 C479.62 106.5 479.63 111.73 479.63 116.95 C479.65 134.31 479.66 151.66 479.67 169.02 C479.67 173.52 479.67 178.03 479.68 182.53 C479.68 183.65 479.68 184.77 479.68 185.93 C479.69 204.06 479.71 222.2 479.74 240.34 C479.78 258.96 479.79 277.58 479.8 296.2 C479.8 306.66 479.81 317.11 479.83 327.57 C479.86 336.47 479.86 345.38 479.85 354.28 C479.85 358.82 479.85 363.36 479.87 367.91 C479.89 372.07 479.89 376.23 479.87 380.39 C479.87 381.89 479.87 383.39 479.89 384.9 C479.96 394.7 478.8 402.36 473.76 410.89 C466.99 417.3 459.97 420.29 450.76 420.27 C449.97 420.28 449.19 420.28 448.38 420.28 C445.72 420.29 443.06 420.29 440.4 420.29 C438.48 420.29 436.56 420.3 434.64 420.3 C429.36 420.32 424.07 420.32 418.78 420.33 C413.09 420.33 407.39 420.34 401.7 420.35 C387.93 420.38 374.17 420.39 360.4 420.41 C356.52 420.41 352.63 420.41 348.75 420.42 C324.62 420.44 300.5 420.47 276.38 420.48 C270.79 420.48 265.2 420.48 259.61 420.49 C258.91 420.49 258.22 420.49 257.5 420.49 C234.99 420.5 212.48 420.53 189.97 420.57 C166.17 420.62 142.37 420.64 118.57 420.65 C105.6 420.65 92.62 420.66 79.65 420.7 C68.6 420.72 57.55 420.74 46.5 420.72 C40.86 420.72 35.23 420.72 29.59 420.75 C24.43 420.77 19.26 420.77 14.1 420.75 C12.24 420.75 10.37 420.75 8.5 420.77 C-2.91 420.85 -11.26 420.36 -20.43 412.82 C-26.04 405.94 -28.74 400.75 -28.75 391.8 C-28.76 390.49 -28.76 389.18 -28.77 387.83 C-28.77 386.37 -28.77 384.91 -28.77 383.45 C-28.77 381.9 -28.77 380.35 -28.78 378.81 C-28.79 374.55 -28.79 370.29 -28.79 366.03 C-28.8 361.44 -28.81 356.85 -28.82 352.26 C-28.84 341.17 -28.85 330.08 -28.85 318.99 C-28.86 313.77 -28.86 308.55 -28.87 303.33 C-28.89 285.97 -28.9 268.61 -28.91 251.25 C-28.91 246.75 -28.91 242.24 -28.91 237.74 C-28.91 236.62 -28.92 235.5 -28.92 234.35 C-28.92 216.21 -28.95 198.07 -28.98 179.93 C-29.01 161.31 -29.03 142.69 -29.04 124.07 C-29.04 113.62 -29.05 103.16 -29.07 92.71 C-29.09 83.8 -29.1 74.9 -29.09 65.99 C-29.09 61.45 -29.09 56.91 -29.11 52.37 C-29.13 48.21 -29.13 44.05 -29.11 39.88 C-29.11 38.38 -29.11 36.88 -29.12 35.38 C-29.2 25.57 -28.03 17.92 -22.99 9.39 C-16.23 2.98 -9.21 -0.01 0 0 Z M-10.62 22.14 C-18.97 38.84 -11.62 59.47 -11.62 78.14 C144.8 78.14 301.22 78.14 462.38 78.14 C466.31 45.81 466.31 45.81 457.38 18.14 C454.37 16.63 451.27 16.99 447.97 17 C446.8 17 446.8 17 445.61 16.99 C442.98 16.98 440.35 16.98 437.72 16.98 C435.82 16.98 433.93 16.97 432.03 16.97 C426.8 16.96 421.58 16.95 416.35 16.95 C410.72 16.94 405.09 16.93 399.46 16.92 C385.85 16.89 372.24 16.88 358.63 16.87 C354.79 16.86 350.95 16.86 347.11 16.86 C323.27 16.83 299.43 16.81 275.6 16.8 C270.07 16.79 264.55 16.79 259.03 16.79 C258.34 16.79 257.65 16.79 256.95 16.79 C234.69 16.77 212.44 16.74 190.18 16.7 C166.66 16.66 143.14 16.63 119.62 16.63 C106.79 16.62 93.97 16.61 81.14 16.58 C70.22 16.55 59.3 16.54 48.38 16.55 C42.81 16.56 37.24 16.55 31.66 16.53 C26.56 16.51 21.46 16.51 16.36 16.52 C14.51 16.53 12.67 16.52 10.82 16.51 C8.31 16.49 5.81 16.5 3.3 16.52 C2.58 16.51 1.85 16.49 1.11 16.48 C-4.51 16.58 -6.81 18.3 -10.62 22.14 Z M-11.62 95.14 C-11.72 144.68 -11.83 194.22 -11.93 245.26 C-11.98 260.92 -12.02 276.58 -12.07 292.72 C-12.09 306.72 -12.09 306.72 -12.1 320.72 C-12.1 326.97 -12.12 333.22 -12.15 339.47 C-12.18 346.68 -12.19 353.88 -12.19 361.09 C-12.18 364.78 -12.19 368.46 -12.21 372.15 C-12.24 376.1 -12.23 380.04 -12.22 383.99 C-12.23 385.14 -12.25 386.3 -12.26 387.48 C-12.26 394.13 -12.26 394.13 -9.21 399.83 C-5.18 403.42 -2.38 403.28 2.79 403.27 C3.57 403.28 4.35 403.28 5.15 403.28 C7.78 403.29 10.41 403.29 13.04 403.29 C14.94 403.29 16.83 403.3 18.73 403.3 C23.96 403.32 29.19 403.32 34.42 403.33 C40.05 403.33 45.68 403.34 51.31 403.35 C64.92 403.38 78.52 403.39 92.13 403.41 C95.97 403.41 99.82 403.41 103.66 403.42 C127.49 403.44 151.33 403.47 175.16 403.48 C180.69 403.48 186.21 403.48 191.74 403.49 C192.42 403.49 193.11 403.49 193.82 403.49 C216.07 403.5 238.33 403.53 260.58 403.57 C284.1 403.62 307.62 403.64 331.14 403.65 C343.97 403.65 356.79 403.66 369.62 403.7 C380.54 403.72 391.46 403.74 402.38 403.72 C407.95 403.72 413.53 403.72 419.1 403.75 C424.2 403.77 429.3 403.77 434.4 403.75 C436.25 403.75 438.1 403.75 439.94 403.77 C442.45 403.79 444.96 403.77 447.46 403.76 C448.19 403.77 448.91 403.78 449.65 403.79 C455.27 403.7 457.57 401.98 461.38 398.14 C462.63 395.64 462.51 393.98 462.5 391.19 C462.51 390.14 462.51 389.08 462.51 388 C462.51 386.83 462.5 385.67 462.5 384.47 C462.5 383.24 462.5 382.01 462.5 380.75 C462.51 377.32 462.5 373.9 462.5 370.47 C462.49 366.73 462.49 362.98 462.49 359.24 C462.5 351.96 462.49 344.69 462.48 337.41 C462.48 329 462.48 320.59 462.48 312.17 C462.47 289.95 462.46 267.73 462.44 245.51 C462.42 195.89 462.4 146.26 462.38 95.14 C305.96 95.14 149.54 95.14 -11.62 95.14 Z " fill="#000000" transform="translate(30.618905067443848,45.862985610961914)"/>
<path d="M0 0 C4.3 4.15 5.57 9.07 7.2 14.64 C7.62 16.02 7.62 16.02 8.05 17.44 C8.94 20.37 9.81 23.31 10.69 26.25 C11.57 29.2 12.46 32.15 13.36 35.11 C13.91 36.94 14.46 38.77 15.01 40.61 C15.25 41.44 15.5 42.26 15.76 43.11 C15.97 43.84 16.19 44.57 16.41 45.32 C16.87 47.01 16.87 47.01 18 48 C18.37 46.76 18.75 45.52 19.13 44.24 C20.52 39.62 21.93 35 23.33 30.39 C23.94 28.39 24.54 26.39 25.14 24.4 C26.01 21.52 26.89 18.65 27.77 15.77 C28.03 14.89 28.29 14 28.56 13.08 C30.1 8.11 31.68 4.05 35 0 C38.86 -1.19 40.92 -1.51 44.6 0.22 C47.34 2.25 47.93 3.34 48.95 6.55 C49.27 7.53 49.59 8.51 49.92 9.51 C50.28 10.66 50.63 11.81 51 13 C51.45 14.39 51.89 15.79 52.34 17.18 C53.84 21.84 55.29 26.51 56.75 31.19 C57.26 32.82 57.77 34.46 58.29 36.1 C59.53 40.06 60.76 44.03 62 48 C64.07 42.63 65.91 37.25 67.56 31.74 C68.03 30.19 68.5 28.65 68.98 27.1 C69.71 24.7 70.44 22.3 71.16 19.89 C71.87 17.55 72.59 15.2 73.31 12.86 C73.62 11.79 73.62 11.79 73.95 10.7 C75.29 6.4 76.82 3.21 80 0 C83.49 -0.94 85.85 -1.37 89.31 -0.25 C91 1 91 1 93 4 C93.39 9.14 92.57 13.25 91.03 18.14 C90.82 18.82 90.61 19.49 90.39 20.19 C89.7 22.4 89 24.61 88.29 26.82 C87.81 28.37 87.32 29.91 86.83 31.46 C85.82 34.7 84.79 37.93 83.77 41.16 C82.45 45.29 81.15 49.43 79.85 53.57 C78.85 56.76 77.84 59.96 76.83 63.15 C76.35 64.67 75.87 66.2 75.39 67.72 C74.72 69.86 74.04 71.99 73.36 74.12 C72.98 75.33 72.59 76.54 72.2 77.79 C69.4 85.3 69.4 85.3 66 87 C61.9 87.46 59.81 87.62 56.48 85.06 C53.31 81.15 52.1 77.42 50.67 72.65 C50.39 71.75 50.11 70.86 49.82 69.93 C49.23 68.05 48.64 66.16 48.07 64.27 C47.19 61.37 46.28 58.48 45.38 55.59 C44.81 53.76 44.24 51.92 43.67 50.09 C43.4 49.22 43.13 48.35 42.85 47.46 C42.61 46.66 42.37 45.85 42.11 45.02 C41.9 44.32 41.68 43.61 41.46 42.88 C41 41 41 41 41 38 C40.34 38 39.68 38 39 38 C38.88 38.55 38.77 39.11 38.65 39.67 C37.5 44.98 36.16 50.17 34.57 55.36 C34.34 56.11 34.12 56.86 33.88 57.64 C33.4 59.21 32.91 60.79 32.42 62.36 C31.93 63.96 31.45 65.56 30.97 67.16 C30.27 69.5 29.55 71.84 28.82 74.17 C28.62 74.88 28.41 75.59 28.19 76.33 C26.7 81.03 24.85 83.91 21 87 C17.44 87.56 17.44 87.56 14 87 C10.86 84.4 9.38 82.14 8.13 78.29 C7.81 77.31 7.49 76.34 7.16 75.33 C6.82 74.25 6.48 73.17 6.12 72.06 C5.57 70.35 5.57 70.35 5.01 68.61 C3.92 65.22 2.84 61.83 1.77 58.43 C0.93 55.76 0.07 53.1 -0.78 50.44 C-2.4 45.39 -4 40.35 -5.6 35.3 C-6.24 33.27 -6.88 31.25 -7.53 29.22 C-8.45 26.34 -9.35 23.46 -10.25 20.58 C-10.53 19.72 -10.81 18.85 -11.1 17.96 C-12.57 13.19 -13.48 9.06 -13 4 C-9.02 -1.05 -6.19 -1.49 0 0 Z " fill="#000000" transform="translate(216,252)"/>
<path d="M0 0 C4.22 4.12 5.54 8.9 7.2 14.39 C7.62 15.73 7.62 15.73 8.05 17.11 C8.94 19.97 9.81 22.83 10.69 25.69 C11.58 28.56 12.47 31.43 13.36 34.3 C13.91 36.08 14.46 37.87 15.01 39.65 C15.38 40.86 15.38 40.86 15.76 42.09 C15.97 42.8 16.19 43.51 16.41 44.24 C16.98 46.08 16.98 46.08 18 48 C18.37 46.76 18.75 45.52 19.13 44.24 C20.52 39.62 21.93 35 23.33 30.39 C23.94 28.39 24.54 26.39 25.14 24.4 C26.01 21.52 26.89 18.65 27.77 15.77 C28.03 14.89 28.29 14 28.56 13.08 C30.11 8.1 31.77 4.12 35 0 C37.85 -1.43 39.83 -1.31 43 -1 C48.75 2.24 49.78 7.06 51.55 13.02 C51.85 13.99 52.16 14.96 52.47 15.96 C53.43 19.05 54.37 22.15 55.31 25.25 C55.96 27.35 56.61 29.45 57.27 31.55 C58.86 36.7 60.44 41.85 62 47 C63.35 44.42 64.42 41.92 65.27 39.14 C65.49 38.39 65.72 37.65 65.95 36.88 C66.19 36.09 66.43 35.29 66.68 34.47 C67.2 32.78 67.72 31.08 68.25 29.38 C69.06 26.72 69.88 24.06 70.68 21.39 C71.46 18.81 72.26 16.24 73.05 13.66 C73.29 12.87 73.53 12.07 73.77 11.26 C75.17 6.79 76.6 3.38 80 0 C84.01 -1.17 86.05 -1.43 89.88 0.31 C92 2 92 2 93 4 C93.3 9.15 92.57 13.24 91.03 18.14 C90.82 18.82 90.61 19.49 90.39 20.19 C89.7 22.4 89 24.61 88.29 26.82 C87.81 28.37 87.32 29.91 86.83 31.46 C85.82 34.7 84.79 37.93 83.77 41.16 C82.45 45.29 81.15 49.43 79.85 53.57 C78.85 56.76 77.84 59.96 76.83 63.15 C76.35 64.67 75.87 66.2 75.39 67.72 C74.72 69.86 74.04 71.99 73.36 74.12 C72.98 75.33 72.59 76.54 72.2 77.79 C69.4 85.3 69.4 85.3 66 87 C61.93 87.46 59.82 87.62 56.49 85.11 C53.19 80.98 51.95 76.9 50.45 71.89 C50.15 70.92 49.84 69.95 49.53 68.95 C48.57 65.87 47.63 62.78 46.69 59.69 C46.04 57.59 45.39 55.49 44.73 53.4 C43.14 48.27 41.56 43.14 40 38 C39.84 38.54 39.67 39.08 39.5 39.64 C37.78 45.27 36.05 50.9 34.29 56.52 C33.64 58.62 33 60.72 32.36 62.82 C31.44 65.85 30.5 68.87 29.55 71.89 C29.27 72.82 28.99 73.76 28.7 74.73 C27.04 79.95 25.52 83.56 21 87 C17.25 87.59 15.12 87.81 11.99 85.54 C9.15 81.91 8.06 78.12 6.69 73.75 C6.37 72.76 6.05 71.77 5.72 70.75 C4.95 68.35 4.19 65.94 3.43 63.54 C2.35 60.11 1.26 56.69 0.17 53.27 C-1.55 47.9 -3.26 42.53 -4.96 37.16 C-5.65 34.97 -6.35 32.79 -7.05 30.6 C-8.04 27.48 -9.02 24.36 -10 21.24 C-10.3 20.3 -10.61 19.36 -10.92 18.38 C-14.08 8.23 -14.08 8.23 -12.25 2.75 C-8.99 -1.81 -5.1 -1.37 0 0 Z " fill="#000000" transform="translate(87,252)"/>
<path d="M0 0 C4.3 4.15 5.57 9.07 7.2 14.64 C7.62 16.02 7.62 16.02 8.05 17.44 C8.94 20.37 9.81 23.31 10.69 26.25 C11.57 29.2 12.46 32.15 13.36 35.11 C13.91 36.94 14.46 38.77 15.01 40.61 C15.25 41.44 15.5 42.26 15.76 43.11 C15.97 43.84 16.19 44.57 16.41 45.32 C16.87 47.01 16.87 47.01 18 48 C18.17 47.44 18.34 46.89 18.51 46.31 C20.27 40.52 22.04 34.73 23.82 28.94 C24.48 26.78 25.14 24.62 25.79 22.45 C26.73 19.34 27.69 16.24 28.64 13.14 C28.94 12.17 29.23 11.2 29.53 10.2 C29.95 8.85 29.95 8.85 30.37 7.47 C30.74 6.28 30.74 6.28 31.11 5.07 C32.1 2.76 33.04 1.56 35 0 C38.78 -0.98 41.01 -1.46 44.6 0.21 C47.34 2.25 47.93 3.34 48.95 6.55 C49.27 7.53 49.59 8.51 49.92 9.51 C50.28 10.66 50.63 11.81 51 13 C51.45 14.39 51.89 15.79 52.34 17.18 C53.84 21.84 55.29 26.51 56.75 31.19 C57.26 32.82 57.77 34.46 58.29 36.1 C59.53 40.06 60.76 44.03 62 48 C62.31 47.06 62.62 46.13 62.95 45.16 C64.88 39.37 66.81 33.58 68.74 27.79 C68.98 27.06 69.22 26.33 69.47 25.58 C69.96 24.12 70.45 22.67 70.93 21.21 C72.03 17.93 73.11 14.64 74.17 11.34 C74.52 10.27 74.86 9.2 75.21 8.1 C75.51 7.17 75.8 6.25 76.1 5.29 C77.41 1.96 78.73 0.45 82 -1 C85.92 -1 88.17 -0.55 91.44 1.62 C93.6 4.91 93.23 7.1 93 11 C92.18 14.47 92.18 14.47 91.01 18.16 C90.7 19.17 90.7 19.17 90.37 20.21 C89.68 22.43 88.97 24.64 88.26 26.86 C87.77 28.41 87.28 29.95 86.79 31.5 C85.77 34.74 84.74 37.98 83.71 41.22 C82.39 45.36 81.08 49.51 79.77 53.65 C78.76 56.85 77.75 60.05 76.74 63.24 C76.25 64.77 75.77 66.3 75.29 67.83 C74.61 69.96 73.93 72.1 73.25 74.23 C72.86 75.44 72.47 76.66 72.08 77.91 C69.79 84.47 69.79 84.47 66 87 C61.9 87.53 59.84 87.64 56.5 85.1 C53.18 80.98 51.95 76.91 50.45 71.89 C50.15 70.92 49.84 69.95 49.53 68.95 C48.57 65.87 47.63 62.78 46.69 59.69 C46.04 57.59 45.39 55.49 44.73 53.4 C43.14 48.27 41.56 43.14 40 38 C39.84 38.54 39.67 39.08 39.5 39.64 C37.78 45.27 36.05 50.9 34.29 56.52 C33.64 58.62 33 60.72 32.36 62.82 C31.44 65.85 30.5 68.87 29.55 71.89 C29.27 72.82 28.99 73.76 28.7 74.73 C27.04 79.95 25.52 83.56 21 87 C17.44 87.56 17.44 87.56 14 87 C10.58 84.22 9.23 81.67 7.88 77.52 C7.51 76.4 7.13 75.27 6.75 74.11 C6.16 72.26 6.16 72.26 5.56 70.38 C5.14 69.07 4.72 67.77 4.3 66.47 C3.11 62.81 1.95 59.15 0.79 55.48 C-0.05 52.85 -0.89 50.22 -1.73 47.59 C-3.25 42.86 -4.75 38.12 -6.24 33.38 C-6.83 31.51 -7.42 29.64 -8.01 27.77 C-8.86 25.12 -9.68 22.47 -10.51 19.82 C-10.76 19.03 -11.01 18.24 -11.27 17.43 C-12.68 12.84 -13.43 8.86 -13 4 C-9.02 -1.05 -6.19 -1.49 0 0 Z " fill="#000000" transform="translate(345,252)"/>
<path d="M0 0 C3.14 2.6 5.69 4.8 6.27 8.95 C6.46 13.25 6.43 16.1 3.62 19.5 C-0.42 23.36 -3.09 23.34 -8.52 23.28 C-12.07 22.88 -13.69 21.67 -16 19 C-18.04 15.31 -18.51 12.18 -18 8 C-14.15 0.46 -8.12 -2.79 0 0 Z " fill="#000000" transform="translate(169,82)"/>
<path d="M0 0 C3.24 2.57 4.7 4.09 6 8 C6.54 13.71 5.62 16.56 2 21 C-2.24 23.83 -6.02 23.65 -11 23 C-14.5 20.96 -16.77 18.9 -18 15 C-18.46 9.96 -18.05 7.06 -15 3 C-10.84 -1.85 -5.82 -1.51 0 0 Z " fill="#000000" transform="translate(78,82)"/>
<path d="M0 0 C2.78 2.95 4.05 5.06 4.19 9.17 C3.94 13.25 3.38 14.95 0.69 18.19 C-3.19 21.31 -5.67 21.64 -10.55 21.61 C-14.47 21 -16.18 19.08 -18.88 16.25 C-20.73 12.55 -20.33 8.29 -19.88 4.25 C-18.1 1.1 -16.68 -0.26 -13.62 -2.12 C-8.55 -3.28 -4.45 -2.71 0 0 Z " fill="#000000" transform="translate(125.875,83.75)"/>
</svg>
